<svg width="157" height="38" viewBox="0 0 157 38" fill="none" xmlns="http://www.w3.org/2000/svg">
<path d="M55.6008 30.1506H59.3734L65.3062 13.8583H61.179L57.471 25.431L53.7629 13.8583H49.668L55.6008 30.1506Z" fill="#0D4752"/>
<path d="M72.9251 30.4092C77.8584 30.4092 81.4053 26.8534 81.4053 22.0045C81.4053 17.1556 77.8584 13.5997 72.9251 13.5997C67.9918 13.5997 64.445 17.1556 64.445 22.0045C64.445 26.8534 67.9918 30.4092 72.9251 30.4092ZM72.9251 26.8857C70.2811 26.8857 68.54 24.9138 68.54 22.0045C68.54 19.0951 70.2811 17.1233 72.9251 17.1233C75.5369 17.1233 77.3103 19.0951 77.3103 22.0045C77.3103 24.9138 75.5369 26.8857 72.9251 26.8857Z" fill="#0D4752"/>
<path d="M90.7867 30.4092C94.8817 30.4092 97.8159 28.3404 98.4285 24.9138L94.4625 24.1057C94.0756 25.8513 92.8181 26.8857 90.9157 26.8857C88.4007 26.8857 86.7562 24.9785 86.7562 22.0045C86.7562 19.0305 88.4007 17.1233 90.9157 17.1233C92.8181 17.1233 94.1723 18.287 94.4625 20.0003L98.4285 19.2244C97.8803 15.7656 94.9462 13.5997 90.7867 13.5997C85.9179 13.5997 82.5323 17.0263 82.5323 22.0045C82.5323 26.9827 85.9179 30.4092 90.7867 30.4092Z" fill="#0D4752"/>
<path d="M107.055 30.4092C109.087 30.4092 110.892 29.5687 111.698 28.2757V30.1506H115.761V7.26385H111.698V15.6686C110.763 14.4402 109.022 13.5997 106.991 13.5997C102.186 13.5997 99.3167 17.0263 99.3167 22.0045C99.3167 26.9827 102.186 30.4092 107.055 30.4092ZM107.636 26.8857C105.056 26.8857 103.347 24.9461 103.347 22.0045C103.347 19.0628 105.056 17.1233 107.636 17.1233C110.247 17.1233 111.956 19.0628 111.956 22.0045C111.956 24.9461 110.247 26.8857 107.636 26.8857Z" fill="#0D4752"/>
<path d="M125.545 30.4092C130.478 30.4092 134.025 26.8534 134.025 22.0045C134.025 17.1556 130.478 13.5997 125.545 13.5997C120.612 13.5997 117.065 17.1556 117.065 22.0045C117.065 26.8534 120.612 30.4092 125.545 30.4092ZM125.545 26.8857C122.901 26.8857 121.16 24.9138 121.16 22.0045C121.16 19.0951 122.901 17.1233 125.545 17.1233C128.157 17.1233 129.93 19.0951 129.93 22.0045C129.93 24.9138 128.157 26.8857 125.545 26.8857Z" fill="#0D4752"/>
<path d="M135.305 30.1506H139.368V23.0066C139.368 19.3538 140.819 17.2202 143.302 17.2202C145.204 17.2202 146.397 18.5456 146.397 20.4528V30.1506H150.46V19.4831C150.46 15.9272 148.074 13.5997 144.527 13.5997C142.238 13.5997 140.4 14.7311 139.368 16.3151V13.8583H135.305V30.1506Z" fill="#0D4752"/>
<path d="M152.613 30.1506H156.675V13.8583H152.613V30.1506Z" fill="#0D4752"/>
<ellipse cx="154.575" cy="9.73442" rx="2.42435" ry="2.43052" fill="#0D4752"/>
<path d="M0 16.0649V25.2353C0 25.6712 0.229072 26.075 0.603213 26.2987L19.5408 37.62C19.9323 37.854 20.4208 37.854 20.8123 37.62L39.7499 26.2987C40.124 26.075 40.3531 25.6712 40.3531 25.2353V16.0649C40.3531 15.7047 39.961 15.4815 39.6513 15.6654L20.809 26.852C20.4191 27.0835 19.9339 27.0835 19.5441 26.852L0.701782 15.6654C0.392083 15.4815 0 15.7047 0 16.0649Z" fill="url(#paint0_linear_5537_76441)"/>
<path d="M12.7539 0.820955V10.0276C12.7539 10.4639 12.9834 10.8681 13.3581 11.0916L23.2068 16.9669C23.5165 17.1516 23.9094 16.9285 23.9094 16.5679V7.39795C23.9094 6.96285 23.6812 6.55963 23.3081 6.3357L13.4576 0.422614C13.148 0.236726 12.7539 0.459781 12.7539 0.820955Z" fill="url(#paint1_linear_5537_76441)"/>
<defs>
<linearGradient id="paint0_linear_5537_76441" x1="20.1765" y1="15.2487" x2="20.1765" y2="38" gradientUnits="userSpaceOnUse">
<stop stop-color="#A3EC93"/>
<stop offset="1" stop-color="#46C4C2"/>
</linearGradient>
<linearGradient id="paint1_linear_5537_76441" x1="18.3317" y1="0.000183105" x2="18.3317" y2="17.386" gradientUnits="userSpaceOnUse">
<stop stop-color="#A3EC93"/>
<stop offset="1" stop-color="#46C4C2"/>
</linearGradient>
</defs>
</svg>
