<svg width="741" height="240" viewBox="0 0 741 240" fill="none" xmlns="http://www.w3.org/2000/svg">
<g filter="url(#filter0_d_1139_909)">
<rect x="8" y="2" width="725" height="224" rx="50" fill="#3164FA"/>
<path d="M487.792 106C498.907 106 505.889 109.146 512.503 114.791L505.338 123.397C500.377 119.14 495.416 116.549 487.332 116.549C475.574 116.549 466.479 126.914 466.479 139.314L466.485 140.085C466.737 153.111 475.4 162.634 488.343 162.634C494.498 162.634 499.918 160.69 503.868 157.729V145.699L514.8 135.705V162.911C508.369 168.371 499.367 172.998 487.976 172.998C467.857 172.998 454.629 158.562 454.629 139.684L454.634 138.909C454.927 121.029 468.528 106 487.792 106ZM560.544 106C580.294 106 594.074 121.084 594.074 139.314L594.069 140.083C593.773 157.965 579.898 172.998 560.36 172.998C540.609 172.998 526.83 157.914 526.83 139.684L526.835 138.915C527.131 121.033 541.006 106 560.544 106ZM275.766 106.648L304.06 171.888L292.558 171.887L270.346 120.251L248.297 171.887L237 171.888L265.294 106.648H275.766ZM421.499 106.648L449.793 171.888L438.291 171.887L416.079 120.251L394.03 171.887L382.733 171.888L411.027 106.648H421.499ZM616.739 107.11L651.188 151.899V107.11H662.303V171.888H652.841L617.382 125.803V171.888H606.266V107.11H616.739ZM560.36 116.549C547.591 116.549 538.68 126.729 538.68 139.314L538.686 140.053C538.946 152.387 547.872 162.449 560.544 162.449C573.313 162.449 582.224 152.269 582.224 139.684L582.218 138.945C581.958 126.611 573.032 116.549 560.36 116.549Z" fill="white"/>
<path d="M346.406 106C354.506 106 360.857 108.446 364.999 112.584C368.404 116.253 370.337 121.05 370.337 126.788L370.335 127.327C370.202 137.701 364.164 144.03 355.637 146.741L355.058 146.918L372.454 171.845H359.016L343.185 148.893L334.875 148.891L340.706 138.638L345.578 138.64C353.494 138.64 358.596 134.598 358.824 128.093L358.832 127.635L358.83 127.196C358.717 120.21 353.854 116.535 345.486 116.535H329.011L329.009 136.889L329 136.888V151.572L329.009 151.567L329.011 171.845H317.69V106H346.406Z" fill="white"/>
<path fill-rule="evenodd" clip-rule="evenodd" d="M110.424 45.7766L103.482 38.4108C115.485 36.8643 147.156 38.8475 177.816 59.1521C178.214 61.9565 178.129 64.752 178.129 64.752L180.388 65.9749L180.401 65.9943L180.405 65.9656L180.451 65.9937C181.719 68.1698 182.999 71.4144 183.818 75.2321C184.808 79.8514 185.09 85.1694 183.936 90.255C182.773 95.3789 180.565 99.6081 178.403 102.701C176.806 104.987 175.283 106.585 174.282 107.46C170.366 107.542 163.075 110.169 160.99 119.277C154.71 122.871 144.85 126.464 131.826 126.464C119.385 126.464 106.694 122.861 97.1545 115.883C87.6531 108.934 81.2721 98.647 81.2721 85.1038C81.2721 74.3303 86.1 65.9148 92.2233 59.7257C98.3665 53.5164 106.764 48.4855 111.635 46.8158L110.424 45.7766ZM164.225 63.4492C161.811 66.0801 159.554 67.3424 158.91 67.6847C144.815 64.5474 139.737 56.9172 139.737 56.9172C153.032 56.8313 165.031 60.1403 173.811 65.7378C173.811 65.7378 169.058 64.1263 164.225 63.4492Z" fill="white"/>
<path d="M103.285 47.8141C73.0644 53.9004 50 81.1133 50 114.02C50 155.624 85.1229 190 128.449 190C160.802 190 187.733 170.194 201.814 143.696C183.087 148.143 160.728 140.237 160.585 122.954C153.844 126.424 144.137 129.504 131.826 129.504C118.851 129.504 105.506 125.756 95.3634 118.338C85.1828 110.892 78.2358 99.7388 78.2358 85.1038C78.2358 73.3346 83.533 64.1897 90.0662 57.5863C93.846 53.8019 99.028 50.2103 103.285 47.8141Z" fill="white"/>
<path d="M186.786 74.5941C186.377 72.6838 185.853 70.8772 185.258 69.2353C193.382 75.3138 199.709 83.609 199.182 95.1671C198.422 111.815 188.379 118.365 181.949 119.456C185.035 114.271 182.463 110.996 181.434 109.904C180.934 109.373 179.9 108.479 178.126 107.921C179.004 106.957 179.951 105.79 180.891 104.444C183.233 101.092 185.63 96.5057 186.896 90.9288C188.171 85.3136 187.846 79.5356 186.786 74.5941Z" fill="white"/>
<path d="M244.38 79.0004H247.932V70.2126H254.273C254.732 70.2126 255.513 70.1786 256.159 70.0766C260.239 69.4307 262.296 66.3371 262.296 62.3596C262.296 58.3991 260.256 55.2885 256.159 54.6596C255.513 54.5576 254.749 54.5236 254.273 54.5236H244.38V79.0004ZM247.932 66.847V57.8722H254.137C254.579 57.8722 255.173 57.9062 255.683 58.0421C257.859 58.5521 258.675 60.5578 258.675 62.3596C258.675 64.1613 257.859 66.1671 255.683 66.694C255.173 66.813 254.579 66.847 254.137 66.847H247.932Z" fill="white"/>
<path d="M279.989 79.5103C287.315 79.5103 291.547 74.326 291.547 66.762C291.547 59.198 287.315 54.0137 279.989 54.0137C272.646 54.0137 268.413 59.198 268.413 66.762C268.413 74.326 272.646 79.5103 279.989 79.5103ZM272.187 66.762C272.204 61.1527 274.787 57.3452 279.989 57.3962C285.19 57.4302 287.774 61.1527 287.774 66.762C287.774 72.3713 285.19 76.1788 279.989 76.1278C274.787 76.0938 272.17 72.3713 272.187 66.762Z" fill="white"/>
<path d="M303.172 79.0004H306.708L311.96 60.6938L317.212 79.0004H320.748L327.87 54.5236H324.131L318.98 73.0342L313.83 54.5236L310.09 54.5406L304.94 73.0342L299.79 54.5236H296.067L303.172 79.0004Z" fill="white"/>
<path d="M334.801 79.0004H350.439V75.6518H338.354V68.0878H348.4V64.7393H338.354V57.8722H350.439V54.5236H334.801V79.0004Z" fill="white"/>
<path d="M358.601 79.0004H362.154V70.2126H368.647L372.913 79.0004H376.976L372.352 69.5156C375.123 68.3088 376.517 65.6232 376.517 62.3596C376.517 58.3991 374.477 55.2885 370.38 54.6596C369.735 54.5576 368.97 54.5236 368.494 54.5236H358.601V79.0004ZM362.154 66.847V57.8722H368.358C368.8 57.8722 369.395 57.9062 369.904 58.0421C372.08 58.5521 372.896 60.5578 372.896 62.3596C372.896 64.1613 372.08 66.1671 369.904 66.694C369.395 66.813 368.8 66.847 368.358 66.847H362.154Z" fill="white"/>
<path d="M384.791 79.0004H400.429V75.6518H388.343V68.0878H398.389V64.7393H388.343V57.8722H400.429V54.5236H384.791V79.0004Z" fill="white"/>
<path d="M408.59 79.0004H416.256C416.698 79.0004 418.16 79.0004 419.299 78.8474C425.044 78.1165 428.104 73.0002 428.104 66.762C428.104 60.5238 425.044 55.4075 419.299 54.6766C418.16 54.5236 416.698 54.5236 416.256 54.5236H408.59V79.0004ZM412.228 75.6178V57.9062H416.256C417.004 57.9062 418.228 57.9232 419.044 58.0761C422.716 58.7561 424.33 62.4616 424.33 66.762C424.33 70.9605 422.784 74.734 419.044 75.4479C418.228 75.6009 417.038 75.6178 416.256 75.6178H412.228Z" fill="white"/>
<path d="M447.027 79.0004H457.565C462.223 79.0004 464.891 76.1788 464.891 71.8613C464.891 69.2607 463.565 67.102 461.135 66.0651C462.75 65.1302 463.735 63.3455 463.735 61.1017C463.735 57.7702 461.322 54.5236 456.647 54.5236H447.027V79.0004ZM450.63 75.6178V67.8669H457.242C459.69 67.8669 461.254 69.5666 461.254 71.7933C461.254 74.173 459.452 75.6178 457.021 75.6178H450.63ZM450.63 64.5183V57.8722H456.596C458.721 57.8722 460.098 59.232 460.098 61.1357C460.098 63.2775 458.568 64.5183 456.596 64.5183H450.63Z" fill="white"/>
<path d="M477.222 79.0004H480.826V68.8867L489.104 54.5236H484.956L479.024 64.8073L473.092 54.5236H468.944L477.222 68.8867V79.0004Z" fill="white"/>
</g>
<defs>
<filter id="filter0_d_1139_909" x="0" y="0" width="741" height="240" filterUnits="userSpaceOnUse" color-interpolation-filters="sRGB">
<feFlood flood-opacity="0" result="BackgroundImageFix"/>
<feColorMatrix in="SourceAlpha" type="matrix" values="0 0 0 0 0 0 0 0 0 0 0 0 0 0 0 0 0 0 127 0" result="hardAlpha"/>
<feOffset dy="6"/>
<feGaussianBlur stdDeviation="4"/>
<feComposite in2="hardAlpha" operator="out"/>
<feColorMatrix type="matrix" values="0 0 0 0 0 0 0 0 0 0.121569 0 0 0 0 0.360784 0 0 0 0.25 0"/>
<feBlend mode="normal" in2="BackgroundImageFix" result="effect1_dropShadow_1139_909"/>
<feBlend mode="normal" in="SourceGraphic" in2="effect1_dropShadow_1139_909" result="shape"/>
</filter>
</defs>
</svg>
