<svg width="531" height="424" viewBox="0 0 531 424" fill="none" xmlns="http://www.w3.org/2000/svg">
<g filter="url(#filter0_d_1139_924)">
<rect x="8" y="2" width="515" height="408" rx="50" fill="#3164FA"/>
<path fill-rule="evenodd" clip-rule="evenodd" d="M245.424 54.7766L238.482 47.4108C250.485 45.8643 282.156 47.8475 312.816 68.1521C313.214 70.9565 313.129 73.752 313.129 73.752L315.388 74.9749L315.401 74.9943L315.405 74.9656L315.451 74.9937C316.719 77.1698 317.999 80.4144 318.818 84.2321C319.808 88.8514 320.09 94.1694 318.936 99.255C317.773 104.379 315.565 108.608 313.403 111.701C311.806 113.987 310.283 115.585 309.282 116.46C305.366 116.542 298.075 119.169 295.99 128.277C289.71 131.871 279.85 135.464 266.826 135.464C254.385 135.464 241.694 131.861 232.154 124.883C222.653 117.934 216.272 107.647 216.272 94.1038C216.272 83.3303 221.1 74.9148 227.223 68.7257C233.366 62.5164 241.764 57.4855 246.635 55.8158L245.424 54.7766ZM299.225 72.4492C296.811 75.0801 294.554 76.3424 293.91 76.6847C279.815 73.5474 274.737 65.9172 274.737 65.9172C288.032 65.8313 300.031 69.1403 308.811 74.7378C308.811 74.7378 304.058 73.1263 299.225 72.4492Z" fill="white"/>
<path d="M238.285 56.8141C208.064 62.9004 185 90.1133 185 123.02C185 164.624 220.123 199 263.449 199C295.802 199 322.733 179.194 336.814 152.696C318.087 157.143 295.728 149.237 295.585 131.954C288.844 135.424 279.137 138.504 266.826 138.504C253.851 138.504 240.506 134.756 230.363 127.338C220.183 119.892 213.236 108.739 213.236 94.1038C213.236 82.3346 218.533 73.1897 225.066 66.5863C228.846 62.8019 234.028 59.2103 238.285 56.8141Z" fill="white"/>
<path d="M321.786 83.5941C321.377 81.6838 320.853 79.8772 320.258 78.2353C328.382 84.3138 334.709 92.609 334.182 104.167C333.422 120.815 323.379 127.365 316.949 128.456C320.035 123.271 317.463 119.996 316.434 118.904C315.934 118.373 314.9 117.479 313.126 116.921C314.004 115.957 314.951 114.79 315.891 113.444C318.233 110.092 320.63 105.506 321.896 99.9288C323.171 94.3136 322.846 88.5356 321.786 83.5941Z" fill="white"/>
<path d="M303.792 286C314.907 286 321.889 289.146 328.503 294.791L321.338 303.397C316.377 299.14 311.416 296.549 303.332 296.549C291.574 296.549 282.479 306.914 282.479 319.314L282.485 320.085C282.737 333.111 291.4 342.634 304.343 342.634C310.498 342.634 315.918 340.69 319.868 337.729V325.699L330.8 315.705V342.911C324.369 348.371 315.367 352.998 303.976 352.998C283.857 352.998 270.629 338.562 270.629 319.684L270.634 318.909C270.927 301.029 284.528 286 303.792 286ZM376.544 286C396.294 286 410.074 301.084 410.074 319.314L410.069 320.083C409.773 337.965 395.898 352.998 376.36 352.998C356.609 352.998 342.83 337.914 342.83 319.684L342.835 318.915C343.131 301.033 357.006 286 376.544 286ZM91.7664 286.648L120.06 351.888L108.558 351.887L86.3464 300.251L64.2969 351.887L53 351.888L81.2939 286.648H91.7664ZM237.499 286.648L265.793 351.888L254.291 351.887L232.079 300.251L210.03 351.887L198.733 351.888L227.027 286.648H237.499ZM432.739 287.11L467.188 331.899V287.11H478.303V351.888H468.841L433.382 305.803V351.888H422.266V287.11H432.739ZM376.36 296.549C363.591 296.549 354.68 306.729 354.68 319.314L354.686 320.053C354.946 332.387 363.872 342.449 376.544 342.449C389.313 342.449 398.224 332.269 398.224 319.684L398.218 318.945C397.958 306.611 389.032 296.549 376.36 296.549Z" fill="white"/>
<path d="M162.406 286C170.506 286 176.857 288.446 180.999 292.584C184.404 296.253 186.337 301.05 186.337 306.788L186.335 307.327C186.202 317.701 180.164 324.03 171.637 326.741L171.058 326.918L188.454 351.845H175.016L159.185 328.893L150.875 328.891L156.706 318.638L161.578 318.64C169.494 318.64 174.596 314.598 174.824 308.093L174.832 307.635L174.83 307.196C174.717 300.21 169.854 296.535 161.486 296.535H145.011L145.009 316.889L145 316.888V331.572L145.009 331.567L145.011 351.845H133.69V286H162.406Z" fill="white"/>
<path d="M144.38 259H147.932V250.213H154.273C154.732 250.213 155.513 250.179 156.159 250.077C160.239 249.431 162.296 246.337 162.296 242.36C162.296 238.399 160.256 235.289 156.159 234.66C155.513 234.558 154.749 234.524 154.273 234.524H144.38V259ZM147.932 246.847V237.872H154.137C154.579 237.872 155.173 237.906 155.683 238.042C157.859 238.552 158.675 240.558 158.675 242.36C158.675 244.161 157.859 246.167 155.683 246.694C155.173 246.813 154.579 246.847 154.137 246.847H147.932Z" fill="white"/>
<path d="M179.989 259.51C187.315 259.51 191.547 254.326 191.547 246.762C191.547 239.198 187.315 234.014 179.989 234.014C172.646 234.014 168.413 239.198 168.413 246.762C168.413 254.326 172.646 259.51 179.989 259.51ZM172.187 246.762C172.204 241.153 174.787 237.345 179.989 237.396C185.19 237.43 187.774 241.153 187.774 246.762C187.774 252.371 185.19 256.179 179.989 256.128C174.787 256.094 172.17 252.371 172.187 246.762Z" fill="white"/>
<path d="M203.172 259H206.708L211.96 240.694L217.212 259H220.748L227.87 234.524H224.131L218.98 253.034L213.83 234.524L210.09 234.541L204.94 253.034L199.79 234.524H196.067L203.172 259Z" fill="white"/>
<path d="M234.801 259H250.439V255.652H238.354V248.088H248.4V244.739H238.354V237.872H250.439V234.524H234.801V259Z" fill="white"/>
<path d="M258.601 259H262.154V250.213H268.647L272.913 259H276.976L272.352 249.516C275.123 248.309 276.517 245.623 276.517 242.36C276.517 238.399 274.477 235.289 270.38 234.66C269.735 234.558 268.97 234.524 268.494 234.524H258.601V259ZM262.154 246.847V237.872H268.358C268.8 237.872 269.395 237.906 269.904 238.042C272.08 238.552 272.896 240.558 272.896 242.36C272.896 244.161 272.08 246.167 269.904 246.694C269.395 246.813 268.8 246.847 268.358 246.847H262.154Z" fill="white"/>
<path d="M284.791 259H300.429V255.652H288.343V248.088H298.389V244.739H288.343V237.872H300.429V234.524H284.791V259Z" fill="white"/>
<path d="M308.59 259H316.256C316.698 259 318.16 259 319.299 258.847C325.044 258.117 328.104 253 328.104 246.762C328.104 240.524 325.044 235.407 319.299 234.677C318.16 234.524 316.698 234.524 316.256 234.524H308.59V259ZM312.228 255.618V237.906H316.256C317.004 237.906 318.228 237.923 319.044 238.076C322.716 238.756 324.33 242.462 324.33 246.762C324.33 250.96 322.784 254.734 319.044 255.448C318.228 255.601 317.038 255.618 316.256 255.618H312.228Z" fill="white"/>
<path d="M347.027 259H357.565C362.223 259 364.891 256.179 364.891 251.861C364.891 249.261 363.565 247.102 361.135 246.065C362.75 245.13 363.735 243.345 363.735 241.102C363.735 237.77 361.322 234.524 356.647 234.524H347.027V259ZM350.63 255.618V247.867H357.242C359.69 247.867 361.254 249.567 361.254 251.793C361.254 254.173 359.452 255.618 357.021 255.618H350.63ZM350.63 244.518V237.872H356.596C358.721 237.872 360.098 239.232 360.098 241.136C360.098 243.277 358.568 244.518 356.596 244.518H350.63Z" fill="white"/>
<path d="M377.222 259H380.826V248.887L389.104 234.524H384.956L379.024 244.807L373.092 234.524H368.944L377.222 248.887V259Z" fill="white"/>
</g>
<defs>
<filter id="filter0_d_1139_924" x="0" y="0" width="531" height="424" filterUnits="userSpaceOnUse" color-interpolation-filters="sRGB">
<feFlood flood-opacity="0" result="BackgroundImageFix"/>
<feColorMatrix in="SourceAlpha" type="matrix" values="0 0 0 0 0 0 0 0 0 0 0 0 0 0 0 0 0 0 127 0" result="hardAlpha"/>
<feOffset dy="6"/>
<feGaussianBlur stdDeviation="4"/>
<feComposite in2="hardAlpha" operator="out"/>
<feColorMatrix type="matrix" values="0 0 0 0 0 0 0 0 0 0.121569 0 0 0 0 0.360784 0 0 0 0.25 0"/>
<feBlend mode="normal" in2="BackgroundImageFix" result="effect1_dropShadow_1139_924"/>
<feBlend mode="normal" in="SourceGraphic" in2="effect1_dropShadow_1139_924" result="shape"/>
</filter>
</defs>
</svg>
